<svg id="Layer_1" data-name="Layer 1" xmlns="http://www.w3.org/2000/svg" viewBox="0 0 500 120"><defs><style>.cls-1{fill:#e0e0e0;}</style></defs><title>ptoffice_logo</title><path class="cls-1" d="M134.71,43.16a49.59,49.59,0,0,0-.6-8.57h17.36c.19,2.39.5,5.18.5,8h.19c3.8-7,8.38-9.17,13.77-9.17,13.67,0,19.45,12.27,19.45,28,0,12.17-5.59,25.93-18.55,25.93-6.88,0-10.67-2.79-14.37-8.78h-.2c.2,2.2.4,5.39.4,9.28v20.24H134.71Zm24.94,32c5.28,0,7-5.88,7-14.56S164.93,46,160.25,46s-7.59,6-7.59,14.66S155.16,75.18,159.65,75.18Z"/><path class="cls-1" d="M187,34.59h8.88v-11l18-5.58V34.59h10.07V46.75H213.81V68.9c0,4.39,2.69,6.28,5.88,6.28a9,9,0,0,0,4.19-.79l.5,12.16a58.37,58.37,0,0,1-11.87,1.2c-9.87,0-16.66-5.59-16.66-15.26V46.75H187Z"/><path class="cls-1" d="M262.85,33.39c19,0,25.84,13.07,25.84,27.23s-6.88,27.13-25.84,27.13S237,74.78,237,60.62,243.9,33.39,262.85,33.39Zm0,42.19c6.09,0,7.09-7.38,7.09-15s-1-15.06-7.09-15.06-7.08,7.48-7.08,15.06S256.77,75.58,262.85,75.58Z"/><path class="cls-1" d="M299.46,46.75h-9.18V34.59h9.18V27.2c0-12.06,6.78-16.65,17.25-16.65a52.15,52.15,0,0,1,11.68,1.19L328,24.51a12,12,0,0,0-4.58-1c-4.09,0-6,2.2-6,6.79v4.29h9.78V46.75h-9.78v39.8h-18Z"/><path class="cls-1" d="M335.17,46.75H326V34.59h9.18V27.2c0-12.06,6.78-16.65,17.26-16.65a51.91,51.91,0,0,1,11.66,1.19l-.39,12.77a12.1,12.1,0,0,0-4.59-1c-4.09,0-6,2.2-6,6.79v4.29h9.78V46.75h-9.78v39.8H335.17Z"/><rect class="cls-1" x="369.43" y="11.74" width="17.96" height="14.96"/><rect class="cls-1" x="369.43" y="34.59" width="17.96" height="51.97"/><path class="cls-1" d="M431.81,49a21.48,21.48,0,0,0-8.78-2.2c-6.58,0-11.77,4.09-11.77,13.87,0,7.78,2.7,13.77,11.47,13.77a25.36,25.36,0,0,0,10-2.3l.49,13c-2.68,1.29-10.27,2.69-14.45,2.69-19,0-25.84-13-25.84-27.13s6.88-27.23,25.84-27.23a35.73,35.73,0,0,1,14,2.49Z"/><path class="cls-1" d="M453.56,65.51c.5,8.38,6.28,10.87,13,10.87,4.88,0,10.77-2.2,15.16-4.09l.39,12.46a63.15,63.15,0,0,1-18.15,3c-21,.1-27.13-14.06-27.13-27.43,0-14.26,8.48-26.93,24.14-26.93,16.26,0,23.94,12.87,23.94,27v5.09Zm15-9.38v-1.5c0-7-1.89-10.27-7.28-10.27-5.09,0-8.08,4.59-8.08,11.77Z"/><rect class="cls-1" x="44.42" y="37.34" width="39.35" height="11.84"/><path class="cls-1" d="M64.09,11.51a49,49,0,1,0,49,49A49,49,0,0,0,64.09,11.51Zm0,86.35a37.15,37.15,0,0,1-8.49-1V83.32l1.33.66a13.34,13.34,0,0,0,2.46.94,28,28,0,0,0,7.29,1c7.28,0,16.15-3.1,17.09-17.88v-9.5H69.85v7C69.85,71,67.57,74,63.43,74c-3.62,0-5.38-2.42-5.38-7.39V58.53H44.14V92.06a37.34,37.34,0,1,1,20,5.8Z"/></svg>